HIERARCHY
ROOT Bone
{
	OFFSET 0.000000 0.000000 0.000000
	CHANNELS 6 Xposition Yposition Zposition Xrotation Yrotation Zrotation
	JOINT Bone.001
	{
		OFFSET 0.000000 4.950314 0.000000
		CHANNELS 6 Xposition Yposition Zposition Xrotation Yrotation Zrotation
		JOINT Bone.002
		{
			OFFSET 5.530543 1.694592 0.000000
			CHANNELS 6 Xposition Yposition Zposition Xrotation Yrotation Zrotation
			JOINT Bone.003
			{
				OFFSET 1.140002 1.525135 0.000000
				CHANNELS 6 Xposition Yposition Zposition Xrotation Yrotation Zrotation
				End Site
				{
					OFFSET 1.179542 1.494763 0.000000
				}
			}
		}
	}
	JOINT Bone.004
	{
		OFFSET -0.646420 5.238667 -0.029310
		CHANNELS 6 Xposition Yposition Zposition Xrotation Yrotation Zrotation
		JOINT Bone.005
		{
			OFFSET 3.225182 5.938351 -0.958856
			CHANNELS 3 Xrotation Yrotation Zrotation
			JOINT Bone.006
			{
				OFFSET 0.770689 3.011050 -0.494975
				CHANNELS 3 Xrotation Yrotation Zrotation
				JOINT Bone.007
				{
					OFFSET 0.396885 2.071172 0.227695
					CHANNELS 3 Xrotation Yrotation Zrotation
					End Site
					{
						OFFSET 0.517087 2.197350 0.539773
					}
				}
			}
		}
	}
	JOINT Bone.008
	{
		OFFSET 0.000000 4.950314 0.000000
		CHANNELS 6 Xposition Yposition Zposition Xrotation Yrotation Zrotation
		JOINT Bone.009
		{
			OFFSET 0.158752 7.010517 -1.279411
			CHANNELS 3 Xrotation Yrotation Zrotation
			JOINT Bone.010
			{
				OFFSET 0.503382 2.914874 -0.158820
				CHANNELS 3 Xrotation Yrotation Zrotation
				JOINT Bone.011
				{
					OFFSET 0.415437 2.523469 0.268638
					CHANNELS 3 Xrotation Yrotation Zrotation
					End Site
					{
						OFFSET 0.498764 2.548298 0.576656
					}
				}
			}
		}
	}
	JOINT Bone.012
	{
		OFFSET -0.407883 4.820349 -0.158964
		CHANNELS 6 Xposition Yposition Zposition Xrotation Yrotation Zrotation
		JOINT Bone.013
		{
			OFFSET -1.219377 7.529031 -1.048980
			CHANNELS 3 Xrotation Yrotation Zrotation
			JOINT Bone.014
			{
				OFFSET -0.038091 2.642353 0.280975
				CHANNELS 3 Xrotation Yrotation Zrotation
				JOINT Bone.015
				{
					OFFSET 0.137778 1.957376 0.461494
					CHANNELS 3 Xrotation Yrotation Zrotation
					End Site
					{
						OFFSET 0.429594 2.445135 0.512158
					}
				}
			}
		}
	}
	JOINT Bone.016
	{
		OFFSET 0.019047 4.964826 -0.231722
		CHANNELS 6 Xposition Yposition Zposition Xrotation Yrotation Zrotation
		JOINT Bone.017
		{
			OFFSET -3.941314 6.651305 0.338643
			CHANNELS 3 Xrotation Yrotation Zrotation
			JOINT Bone.018
			{
				OFFSET -0.215418 1.695102 -0.009059
				CHANNELS 3 Xrotation Yrotation Zrotation
				JOINT Bone.019
				{
					OFFSET -0.040540 1.748479 0.214522
					CHANNELS 3 Xrotation Yrotation Zrotation
					End Site
					{
						OFFSET -0.122671 1.832884 0.137343
					}
				}
			}
		}
	}
}
MOTION
Frames: 8
Frame Time: 0.041667
0.000000 0.000000 0.000000 -0.000000 0.000000 -0.000000 -0.000000 4.950314 0.000000 -0.000000 0.000000 -0.000000 5.530545 1.694592 0.000000 -0.079790 1.403806 4.906304 1.140000 1.525136 -0.000000 21.792929 0.584250 5.121217 -0.646420 5.238667 -0.029310 0.000000 0.000000 0.000000 0.000000 -0.000000 -0.000000 -0.000000 0.000000 0.000000 0.217482 0.688831 3.995101 0.000000 4.950314 -0.000000 0.000000 0.000000 -0.000000 0.360218 0.064193 -0.056850 0.241993 -0.067686 -0.042637 0.729917 -0.266538 -0.338825 -0.407883 4.820348 -0.158964 0.000000 -0.000000 0.000000 0.000000 -0.000000 0.000000 0.000002 -0.000000 -0.000000 -0.000001 -0.000000 0.000000 0.019047 4.964826 -0.231722 0.000000 -0.000000 -0.000001 -0.000000 -0.000000 -0.000002 0.000000 0.000000 -0.000001 0.000001 0.000000 0.000001 
0.000000 0.000000 0.000000 -0.000000 0.000000 -0.000000 -0.000000 4.950314 0.000000 -0.000000 0.000000 -0.000000 5.530545 1.694592 0.000000 -0.079790 1.403806 4.906304 1.140000 1.525136 -0.000000 21.792929 0.584250 5.121217 -0.646420 5.238667 -0.029310 0.000000 0.000000 0.000000 0.000000 -0.000000 -0.000000 -0.000000 0.000000 0.000000 0.217482 0.688831 3.995101 0.000000 4.950314 -0.000000 0.000000 0.000000 -0.000000 1.338898 0.236722 -0.213279 0.713840 -0.239824 -0.261472 2.709911 -1.014047 -1.244186 -0.407883 4.820348 -0.158964 0.000000 -0.000000 0.000000 0.000000 -0.000000 0.000000 0.000002 -0.000000 -0.000000 -0.000001 -0.000000 0.000000 0.019047 4.964826 -0.231722 0.000000 -0.000000 -0.000001 -0.000000 -0.000000 -0.000002 0.000000 0.000000 -0.000001 0.000001 0.000000 0.000001 
0.000000 0.000000 0.000000 -0.000000 0.000000 -0.000000 -0.000000 4.950314 0.000000 -0.000000 0.000000 -0.000000 5.530545 1.694592 0.000000 -0.079790 1.403806 4.906304 1.140000 1.525136 -0.000000 21.792929 0.584250 5.121217 -0.646420 5.238667 -0.029310 0.000000 0.000000 0.000000 0.000000 -0.000000 -0.000000 -0.000000 0.000000 0.000000 0.217482 0.688831 3.995101 0.000000 4.950314 -0.000000 0.000000 0.000000 -0.000000 2.783443 0.486283 -0.449361 1.408201 -0.496842 -0.581460 5.622002 -2.177525 -2.537162 -0.407883 4.820348 -0.158964 0.000000 -0.000000 0.000000 0.000000 -0.000000 0.000000 0.000002 -0.000000 -0.000000 -0.000001 -0.000000 0.000000 0.019047 4.964826 -0.231722 0.000000 -0.000000 -0.000001 -0.000000 -0.000000 -0.000002 0.000000 0.000000 -0.000001 0.000001 0.000000 0.000001 
0.000000 0.000000 0.000000 -0.000000 0.000000 -0.000000 -0.000000 4.950314 0.000000 -0.000000 0.000000 -0.000000 5.530545 1.694592 0.000000 -0.079790 1.403806 4.906304 1.140000 1.525136 -0.000000 21.792929 0.584250 5.121217 -0.646420 5.238667 -0.029310 0.000000 0.000000 0.000000 0.000000 -0.000000 -0.000000 -0.000000 0.000000 0.000000 0.217482 0.688831 3.995101 0.000000 4.950314 -0.000000 0.000000 0.000000 -0.000000 4.540599 0.781461 -0.744664 2.249688 -0.814201 -0.965922 9.143104 -3.683495 -4.034051 -0.407883 4.820348 -0.158964 0.000000 -0.000000 0.000000 0.000000 -0.000000 0.000000 0.000002 -0.000000 -0.000000 -0.000001 -0.000000 0.000000 0.019047 4.964826 -0.231722 0.000000 -0.000000 -0.000001 -0.000000 -0.000000 -0.000002 0.000000 0.000000 -0.000001 0.000001 0.000000 0.000001 
0.000000 0.000000 0.000000 -0.000000 0.000000 -0.000000 -0.000000 4.950314 0.000000 -0.000000 0.000000 -0.000000 5.530545 1.694592 0.000000 -0.079790 1.403806 4.906304 1.140000 1.525136 -0.000000 21.792929 0.584250 5.121217 -0.646420 5.238667 -0.029310 0.000000 0.000000 0.000000 0.000000 -0.000000 -0.000000 -0.000000 0.000000 0.000000 0.217482 0.688831 3.995101 0.000000 4.950314 -0.000000 0.000000 0.000000 -0.000000 6.455715 1.092390 -1.076355 3.163218 -1.165986 -1.379066 12.948436 -5.428035 -5.562118 -0.407883 4.820348 -0.158964 0.000000 -0.000000 0.000000 0.000000 -0.000000 0.000000 0.000002 -0.000000 -0.000000 -0.000001 -0.000000 0.000000 0.019047 4.964826 -0.231722 0.000000 -0.000000 -0.000001 -0.000000 -0.000000 -0.000002 0.000000 0.000000 -0.000001 0.000001 0.000000 0.000001 
0.000000 0.000000 0.000000 -0.000000 0.000000 -0.000000 -0.000000 4.950314 0.000000 -0.000000 0.000000 -0.000000 5.530545 1.694592 0.000000 -0.079790 1.403806 4.906304 1.140000 1.525136 -0.000000 21.792929 0.584250 5.121217 -0.646420 5.238667 -0.029310 0.000000 0.000000 0.000000 0.000000 -0.000000 -0.000000 -0.000000 0.000000 0.000000 0.217482 0.688831 3.995101 0.000000 4.950314 -0.000000 0.000000 0.000000 -0.000000 8.372822 1.392058 -1.418293 4.074324 -1.524304 -1.786607 16.718852 -7.269387 -6.975455 -0.407883 4.820348 -0.158964 0.000000 -0.000000 0.000000 0.000000 -0.000000 0.000000 0.000002 -0.000000 -0.000000 -0.000001 -0.000000 0.000000 0.019047 4.964826 -0.231722 0.000000 -0.000000 -0.000001 -0.000000 -0.000000 -0.000002 0.000000 0.000000 -0.000001 0.000001 0.000000 0.000001 
0.000000 0.000000 0.000000 -0.000000 0.000000 -0.000000 -0.000000 4.950314 0.000000 -0.000000 0.000000 -0.000000 5.530545 1.694592 0.000000 -0.079790 1.403806 4.906304 1.140000 1.525136 -0.000000 21.792929 0.584250 5.121217 -0.646420 5.238667 -0.029310 0.000000 0.000000 0.000000 0.000000 -0.000000 -0.000000 -0.000000 0.000000 0.000000 0.217482 0.688831 3.995101 0.000000 4.950314 -0.000000 0.000000 0.000000 -0.000000 10.135297 1.657057 -1.741050 4.909298 -1.859180 -2.156043 20.147648 -9.033966 -8.166048 -0.407883 4.820348 -0.158964 0.000000 -0.000000 0.000000 0.000000 -0.000000 0.000000 0.000002 -0.000000 -0.000000 -0.000001 -0.000000 0.000000 0.019047 4.964826 -0.231722 0.000000 -0.000000 -0.000001 -0.000000 -0.000000 -0.000002 0.000000 0.000000 -0.000001 0.000001 0.000000 0.000001 
0.000000 0.000000 0.000000 -0.000000 0.000000 -0.000000 -0.000000 4.950314 0.000000 -0.000000 0.000000 -0.000000 5.530545 1.694592 0.000000 -0.079790 1.403806 4.906304 1.140000 1.525136 -0.000000 21.792929 0.584250 5.121217 -0.646420 5.238667 -0.029310 0.000000 0.000000 0.000000 0.000000 -0.000000 -0.000000 -0.000000 0.000000 0.000000 0.217482 0.688831 3.995101 0.000000 4.950314 -0.000000 0.000000 0.000000 -0.000000 11.586706 1.867564 -2.012655 5.595235 -2.138897 -2.456570 22.942993 -10.530380 -9.065073 -0.407883 4.820348 -0.158964 0.000000 -0.000000 0.000000 0.000000 -0.000000 0.000000 0.000002 -0.000000 -0.000000 -0.000001 -0.000000 0.000000 0.019047 4.964826 -0.231722 0.000000 -0.000000 -0.000001 -0.000000 -0.000000 -0.000002 0.000000 0.000000 -0.000001 0.000001 0.000000 0.000001 
